<mxfile host="app.diagrams.net" modified="2023-11-14T00:34:02.274Z" agent="Mozilla/5.0 (Windows NT 10.0; Win64; x64) AppleWebKit/537.36 (KHTML, like Gecko) Chrome/119.0.0.0 Safari/537.36 Edg/119.0.0.0" etag="fJLSAIg8Y6TYoEmko_BG" version="22.1.0" type="github">
  <diagram name="Page-1" id="Y2rGy6Ay2JIQq9uuTrFd">
    <mxGraphModel dx="1048" dy="628" grid="0" gridSize="10" guides="1" tooltips="1" connect="1" arrows="1" fold="1" page="1" pageScale="1" pageWidth="850" pageHeight="1100" background="#000000" math="0" shadow="0">
      <root>
        <mxCell id="0" />
        <mxCell id="1" parent="0" />
        <mxCell id="Z8T2b1Rlye_iMj2axkBO-53" value="" style="image;html=1;image=img/lib/clip_art/computers/Workstation_128x128.png;fontColor=#FFFFFF;strokeColor=#FFFFFF;" vertex="1" parent="1">
          <mxGeometry x="17" y="552.0000366210937" width="120" height="90" as="geometry" />
        </mxCell>
        <mxCell id="Z8T2b1Rlye_iMj2axkBO-54" value="" style="aspect=fixed;perimeter=ellipsePerimeter;html=1;align=center;shadow=0;dashed=0;spacingTop=3;image;image=img/lib/active_directory/internet_globe.svg;fontColor=#FFFFFF;strokeColor=#FFFFFF;" vertex="1" parent="1">
          <mxGeometry x="34.5" y="252.00003662109373" width="85" height="85" as="geometry" />
        </mxCell>
        <mxCell id="Z8T2b1Rlye_iMj2axkBO-55" value="" style="swimlane;startSize=0;fontColor=#FFFFFF;strokeColor=#FFFFFF;" vertex="1" parent="1">
          <mxGeometry x="157" y="162.00003662109373" width="680" height="560" as="geometry" />
        </mxCell>
        <mxCell id="Z8T2b1Rlye_iMj2axkBO-56" value="&lt;b&gt;Red Team Network&lt;/b&gt; &lt;b&gt;10.0.0.0/16&lt;/b&gt;" style="text;html=1;strokeColor=none;fillColor=none;align=center;verticalAlign=middle;whiteSpace=wrap;rounded=0;fontColor=#FFFFFF;" vertex="1" parent="Z8T2b1Rlye_iMj2axkBO-55">
          <mxGeometry x="120" y="20" width="400" height="30" as="geometry" />
        </mxCell>
        <mxCell id="Z8T2b1Rlye_iMj2axkBO-57" value="" style="swimlane;startSize=0;fontColor=#FFFFFF;strokeColor=#FFFFFF;" vertex="1" parent="1">
          <mxGeometry x="207" y="202.00003662109373" width="590" height="480" as="geometry" />
        </mxCell>
        <mxCell id="Z8T2b1Rlye_iMj2axkBO-58" value="" style="fontColor=#FFFFFF;verticalAlign=top;verticalLabelPosition=bottom;labelPosition=center;align=center;html=1;outlineConnect=0;fillColor=#CCCCCC;strokeColor=#FFFFFF;gradientColor=none;gradientDirection=north;strokeWidth=2;shape=mxgraph.networks.firewall;" vertex="1" parent="Z8T2b1Rlye_iMj2axkBO-57">
          <mxGeometry x="73.65999999999998" y="60" width="70" height="75" as="geometry" />
        </mxCell>
        <mxCell id="Z8T2b1Rlye_iMj2axkBO-59" value="&lt;b&gt;Red Team Virtual Subnet 10.0.0.0/24&lt;br&gt;&lt;/b&gt;" style="text;html=1;strokeColor=none;fillColor=none;align=center;verticalAlign=middle;whiteSpace=wrap;rounded=0;fontColor=#FFFFFF;" vertex="1" parent="Z8T2b1Rlye_iMj2axkBO-57">
          <mxGeometry x="165" width="220" height="20" as="geometry" />
        </mxCell>
        <mxCell id="Z8T2b1Rlye_iMj2axkBO-60" value="" style="swimlane;startSize=0;strokeColor=#FFFFFF;fontColor=#FFFFFF;" vertex="1" parent="Z8T2b1Rlye_iMj2axkBO-57">
          <mxGeometry x="17.32" y="230" width="182.68" height="220" as="geometry">
            <mxRectangle x="17.32" y="200" width="50" height="40" as="alternateBounds" />
          </mxGeometry>
        </mxCell>
        <mxCell id="Z8T2b1Rlye_iMj2axkBO-61" value="" style="aspect=fixed;html=1;points=[];align=center;image;fontSize=12;image=img/lib/azure2/other/SSH_Keys.svg;strokeColor=#FFFFFF;fontColor=#FFFFFF;" vertex="1" parent="Z8T2b1Rlye_iMj2axkBO-60">
          <mxGeometry x="80.00000000000001" y="170" width="22.67" height="20" as="geometry" />
        </mxCell>
        <mxCell id="Z8T2b1Rlye_iMj2axkBO-62" value="&lt;b&gt;Jump Box VM Ansible &lt;/b&gt;" style="text;html=1;strokeColor=none;fillColor=none;align=center;verticalAlign=middle;whiteSpace=wrap;rounded=0;fontColor=#FFFFFF;" vertex="1" parent="Z8T2b1Rlye_iMj2axkBO-60">
          <mxGeometry x="-17.330000000000002" y="130" width="120" height="30" as="geometry" />
        </mxCell>
        <mxCell id="Z8T2b1Rlye_iMj2axkBO-63" value="" style="fontColor=#FFFFFF;verticalAlign=top;verticalLabelPosition=bottom;labelPosition=center;align=center;html=1;outlineConnect=0;fillColor=#CCCCCC;strokeColor=#FFFFFF;gradientColor=none;gradientDirection=north;strokeWidth=2;shape=mxgraph.networks.proxy_server;" vertex="1" parent="Z8T2b1Rlye_iMj2axkBO-60">
          <mxGeometry x="70" y="40" width="42.67" height="50" as="geometry" />
        </mxCell>
        <mxCell id="Z8T2b1Rlye_iMj2axkBO-64" value="&lt;font style=&quot;font-size: 8px&quot;&gt;&lt;b&gt;SSH Private Key&lt;/b&gt;&lt;/font&gt;" style="text;html=1;strokeColor=none;fillColor=none;align=center;verticalAlign=middle;whiteSpace=wrap;rounded=0;fontColor=#FFFFFF;" vertex="1" parent="Z8T2b1Rlye_iMj2axkBO-60">
          <mxGeometry x="88.68" y="160" width="100" height="30" as="geometry" />
        </mxCell>
        <mxCell id="Z8T2b1Rlye_iMj2axkBO-65" value="&lt;b&gt;SSH (p 22)&lt;/b&gt;" style="text;html=1;strokeColor=none;fillColor=none;align=center;verticalAlign=middle;whiteSpace=wrap;rounded=0;fontSize=11;fontColor=#FFFFFF;" vertex="1" parent="Z8T2b1Rlye_iMj2axkBO-60">
          <mxGeometry x="100" y="90" width="60" height="30" as="geometry" />
        </mxCell>
        <mxCell id="Z8T2b1Rlye_iMj2axkBO-66" value="" style="endArrow=none;html=1;rounded=0;fontSize=11;fontColor=#FFFFFF;entryX=0.5;entryY=0.94;entryDx=0;entryDy=0;entryPerimeter=0;strokeColor=#FFFFFF;" edge="1" parent="Z8T2b1Rlye_iMj2axkBO-60" target="Z8T2b1Rlye_iMj2axkBO-63">
          <mxGeometry width="50" height="50" relative="1" as="geometry">
            <mxPoint x="91.68" y="110" as="sourcePoint" />
            <mxPoint x="142.68" y="90" as="targetPoint" />
          </mxGeometry>
        </mxCell>
        <mxCell id="Z8T2b1Rlye_iMj2axkBO-67" value="&lt;b&gt;Private IP 10.0.0.4&lt;/b&gt;" style="text;html=1;strokeColor=none;fillColor=none;align=center;verticalAlign=middle;whiteSpace=wrap;rounded=0;fontSize=11;fontColor=#FFFFFF;" vertex="1" parent="Z8T2b1Rlye_iMj2axkBO-60">
          <mxGeometry y="190" width="80" height="30" as="geometry" />
        </mxCell>
        <mxCell id="Z8T2b1Rlye_iMj2axkBO-68" value="&lt;b&gt;(52.149.137.26)&lt;/b&gt;" style="text;html=1;strokeColor=none;fillColor=none;align=center;verticalAlign=middle;whiteSpace=wrap;rounded=0;fontSize=11;fontColor=#FFFFFF;" vertex="1" parent="Z8T2b1Rlye_iMj2axkBO-60">
          <mxGeometry y="160" width="80" height="30" as="geometry" />
        </mxCell>
        <mxCell id="Z8T2b1Rlye_iMj2axkBO-69" value="" style="swimlane;startSize=0;strokeColor=#FFFFFF;fontColor=#FFFFFF;" vertex="1" parent="Z8T2b1Rlye_iMj2axkBO-57">
          <mxGeometry x="210" y="230" width="340" height="220" as="geometry" />
        </mxCell>
        <mxCell id="Z8T2b1Rlye_iMj2axkBO-70" value="" style="aspect=fixed;html=1;points=[];align=center;image;fontSize=12;image=img/lib/azure2/other/SSH_Keys.svg;strokeColor=#FFFFFF;fontColor=#FFFFFF;" vertex="1" parent="Z8T2b1Rlye_iMj2axkBO-69">
          <mxGeometry x="173.00000000000006" y="90" width="22.67" height="20" as="geometry" />
        </mxCell>
        <mxCell id="Z8T2b1Rlye_iMj2axkBO-71" value="" style="fontColor=#FFFFFF;verticalAlign=top;verticalLabelPosition=bottom;labelPosition=center;align=center;html=1;outlineConnect=0;fillColor=#CCCCCC;strokeColor=#FFFFFF;gradientColor=none;gradientDirection=north;strokeWidth=2;shape=mxgraph.networks.web_server;" vertex="1" parent="Z8T2b1Rlye_iMj2axkBO-69">
          <mxGeometry x="62.5" y="38" width="42" height="52" as="geometry" />
        </mxCell>
        <mxCell id="Z8T2b1Rlye_iMj2axkBO-72" value="" style="fontColor=#FFFFFF;verticalAlign=top;verticalLabelPosition=bottom;labelPosition=center;align=center;html=1;outlineConnect=0;fillColor=#CCCCCC;strokeColor=#FFFFFF;gradientColor=none;gradientDirection=north;strokeWidth=2;shape=mxgraph.networks.web_server;" vertex="1" parent="Z8T2b1Rlye_iMj2axkBO-69">
          <mxGeometry x="260" y="38" width="42" height="52" as="geometry" />
        </mxCell>
        <mxCell id="Z8T2b1Rlye_iMj2axkBO-73" value="" style="endArrow=none;html=1;rounded=0;fontSize=11;fontColor=#FFFFFF;strokeColor=#FFFFFF;" edge="1" parent="Z8T2b1Rlye_iMj2axkBO-69">
          <mxGeometry width="50" height="50" relative="1" as="geometry">
            <mxPoint x="85" y="110" as="sourcePoint" />
            <mxPoint x="85" y="85" as="targetPoint" />
          </mxGeometry>
        </mxCell>
        <mxCell id="Z8T2b1Rlye_iMj2axkBO-74" value="&lt;div&gt;&lt;b&gt;Web-1 10.0.0.5&lt;br&gt;&lt;/b&gt;&lt;/div&gt;" style="text;html=1;strokeColor=none;fillColor=none;align=center;verticalAlign=middle;whiteSpace=wrap;rounded=0;fontSize=11;fontColor=#FFFFFF;" vertex="1" parent="Z8T2b1Rlye_iMj2axkBO-69">
          <mxGeometry x="55" y="110" width="60" height="30" as="geometry" />
        </mxCell>
        <mxCell id="Z8T2b1Rlye_iMj2axkBO-75" value="&lt;b&gt;Web-2&lt;/b&gt; &lt;b&gt;10.0.0.6&lt;/b&gt;" style="text;html=1;strokeColor=none;fillColor=none;align=center;verticalAlign=middle;whiteSpace=wrap;rounded=0;fontSize=11;fontColor=#FFFFFF;" vertex="1" parent="Z8T2b1Rlye_iMj2axkBO-69">
          <mxGeometry x="242" y="110" width="60" height="30" as="geometry" />
        </mxCell>
        <mxCell id="Z8T2b1Rlye_iMj2axkBO-76" value="&lt;font style=&quot;font-size: 8px&quot;&gt;&lt;b&gt;SSH Public Key&lt;/b&gt;&lt;/font&gt;" style="text;html=1;strokeColor=none;fillColor=none;align=center;verticalAlign=middle;whiteSpace=wrap;rounded=0;fontColor=#FFFFFF;" vertex="1" parent="Z8T2b1Rlye_iMj2axkBO-69">
          <mxGeometry x="176" y="80" width="104" height="30" as="geometry" />
        </mxCell>
        <mxCell id="Z8T2b1Rlye_iMj2axkBO-77" value="&lt;b&gt;DVWA Containers&lt;/b&gt;" style="text;html=1;strokeColor=none;fillColor=none;align=center;verticalAlign=middle;whiteSpace=wrap;rounded=0;fontSize=11;fontColor=#FFFFFF;" vertex="1" parent="Z8T2b1Rlye_iMj2axkBO-69">
          <mxGeometry x="100" y="80" width="78" height="30" as="geometry" />
        </mxCell>
        <mxCell id="Z8T2b1Rlye_iMj2axkBO-78" value="&lt;b&gt;Load Balancer Backend Pool&lt;/b&gt;" style="text;html=1;strokeColor=none;fillColor=none;align=center;verticalAlign=middle;whiteSpace=wrap;rounded=0;fontColor=#FFFFFF;" vertex="1" parent="Z8T2b1Rlye_iMj2axkBO-69">
          <mxGeometry x="46" y="190" width="206.5" height="30" as="geometry" />
        </mxCell>
        <mxCell id="Z8T2b1Rlye_iMj2axkBO-79" value="" style="fontColor=#FFFFFF;verticalAlign=top;verticalLabelPosition=bottom;labelPosition=center;align=center;html=1;outlineConnect=0;fillColor=#CCCCCC;strokeColor=#FFFFFF;gradientColor=none;gradientDirection=north;strokeWidth=2;shape=mxgraph.networks.load_balancer;" vertex="1" parent="Z8T2b1Rlye_iMj2axkBO-57">
          <mxGeometry x="320" y="82.5" width="100" height="30" as="geometry" />
        </mxCell>
        <mxCell id="Z8T2b1Rlye_iMj2axkBO-80" value="&lt;div&gt;&lt;b&gt;Red Team Load Balancer 40.121.235.246 (Static)&lt;br&gt;&lt;/b&gt;&lt;/div&gt;" style="text;html=1;strokeColor=none;fillColor=none;align=center;verticalAlign=middle;whiteSpace=wrap;rounded=0;fontColor=#FFFFFF;" vertex="1" parent="Z8T2b1Rlye_iMj2axkBO-57">
          <mxGeometry x="297.5" y="52.5" width="160" height="30" as="geometry" />
        </mxCell>
        <mxCell id="Z8T2b1Rlye_iMj2axkBO-81" value="&lt;b&gt;Red Team Security Group&lt;/b&gt;" style="text;html=1;strokeColor=none;fillColor=none;align=center;verticalAlign=middle;whiteSpace=wrap;rounded=0;fontColor=#FFFFFF;" vertex="1" parent="Z8T2b1Rlye_iMj2axkBO-57">
          <mxGeometry x="54.83" y="30" width="107.67" height="30" as="geometry" />
        </mxCell>
        <mxCell id="Z8T2b1Rlye_iMj2axkBO-82" style="edgeStyle=orthogonalEdgeStyle;rounded=0;orthogonalLoop=1;jettySize=auto;html=1;exitX=0.5;exitY=1;exitDx=0;exitDy=0;strokeColor=#FFFFFF;fontColor=#FFFFFF;" edge="1" parent="Z8T2b1Rlye_iMj2axkBO-57" source="Z8T2b1Rlye_iMj2axkBO-59" target="Z8T2b1Rlye_iMj2axkBO-59">
          <mxGeometry relative="1" as="geometry" />
        </mxCell>
        <mxCell id="Z8T2b1Rlye_iMj2axkBO-83" value="" style="endArrow=none;html=1;rounded=0;fontSize=11;fontColor=#FFFFFF;exitX=1;exitY=0.5;exitDx=0;exitDy=0;exitPerimeter=0;strokeColor=#FFFFFF;" edge="1" parent="Z8T2b1Rlye_iMj2axkBO-57" source="Z8T2b1Rlye_iMj2axkBO-58">
          <mxGeometry width="50" height="50" relative="1" as="geometry">
            <mxPoint x="143.65999999999997" y="97.42000000000002" as="sourcePoint" />
            <mxPoint x="317.3199999999998" y="97.00386849420119" as="targetPoint" />
          </mxGeometry>
        </mxCell>
        <mxCell id="Z8T2b1Rlye_iMj2axkBO-84" value="" style="endArrow=none;html=1;rounded=0;fontSize=11;fontColor=#FFFFFF;strokeColor=#FFFFFF;" edge="1" parent="Z8T2b1Rlye_iMj2axkBO-57" source="Z8T2b1Rlye_iMj2axkBO-63">
          <mxGeometry width="50" height="50" relative="1" as="geometry">
            <mxPoint x="60" y="185" as="sourcePoint" />
            <mxPoint x="110" y="135" as="targetPoint" />
          </mxGeometry>
        </mxCell>
        <mxCell id="Z8T2b1Rlye_iMj2axkBO-85" value="" style="endArrow=none;html=1;rounded=0;fontSize=11;fontColor=#FFFFFF;strokeColor=#FFFFFF;" edge="1" parent="Z8T2b1Rlye_iMj2axkBO-57" source="Z8T2b1Rlye_iMj2axkBO-71">
          <mxGeometry width="50" height="50" relative="1" as="geometry">
            <mxPoint x="297.5" y="162.5" as="sourcePoint" />
            <mxPoint x="347.5" y="112.5" as="targetPoint" />
          </mxGeometry>
        </mxCell>
        <mxCell id="Z8T2b1Rlye_iMj2axkBO-86" value="" style="endArrow=none;html=1;rounded=0;fontSize=11;fontColor=#FFFFFF;entryX=0.9;entryY=1;entryDx=0;entryDy=0;entryPerimeter=0;strokeColor=#FFFFFF;" edge="1" parent="Z8T2b1Rlye_iMj2axkBO-57" source="Z8T2b1Rlye_iMj2axkBO-72" target="Z8T2b1Rlye_iMj2axkBO-79">
          <mxGeometry width="50" height="50" relative="1" as="geometry">
            <mxPoint x="335" y="162.5" as="sourcePoint" />
            <mxPoint x="385" y="112.5" as="targetPoint" />
          </mxGeometry>
        </mxCell>
        <mxCell id="Z8T2b1Rlye_iMj2axkBO-87" value="&lt;b&gt;SSH (p 22)&lt;/b&gt;" style="text;html=1;strokeColor=none;fillColor=none;align=center;verticalAlign=middle;whiteSpace=wrap;rounded=0;fontSize=11;fontColor=#FFFFFF;" vertex="1" parent="Z8T2b1Rlye_iMj2axkBO-57">
          <mxGeometry x="110" y="150" width="60" height="30" as="geometry" />
        </mxCell>
        <mxCell id="Z8T2b1Rlye_iMj2axkBO-88" value="&lt;b&gt;HTTP (p 80)&lt;/b&gt;" style="text;html=1;strokeColor=none;fillColor=none;align=center;verticalAlign=middle;whiteSpace=wrap;rounded=0;fontSize=11;fontColor=#FFFFFF;" vertex="1" parent="Z8T2b1Rlye_iMj2axkBO-57">
          <mxGeometry x="143.66" y="70" width="78.34" height="30" as="geometry" />
        </mxCell>
        <mxCell id="Z8T2b1Rlye_iMj2axkBO-89" value="&lt;b&gt;Red Team Resource Group&lt;/b&gt;" style="text;html=1;strokeColor=none;fillColor=none;align=center;verticalAlign=middle;whiteSpace=wrap;rounded=0;fontColor=#FFFFFF;" vertex="1" parent="1">
          <mxGeometry x="297" y="142.00003662109373" width="360" height="30" as="geometry" />
        </mxCell>
        <mxCell id="Z8T2b1Rlye_iMj2axkBO-90" value="&lt;font style=&quot;font-size: 11px&quot;&gt;&lt;b&gt;Internet&lt;/b&gt;&lt;/font&gt;" style="text;html=1;strokeColor=none;fillColor=none;align=center;verticalAlign=middle;whiteSpace=wrap;rounded=0;fontSize=8;fontColor=#FFFFFF;" vertex="1" parent="1">
          <mxGeometry x="47" y="272.0000366210937" width="60" height="30" as="geometry" />
        </mxCell>
        <mxCell id="Z8T2b1Rlye_iMj2axkBO-91" value="&lt;font style=&quot;font-size: 12px&quot;&gt;&lt;b&gt;Workstation&lt;/b&gt;&lt;/font&gt;" style="text;html=1;strokeColor=none;fillColor=none;align=center;verticalAlign=middle;whiteSpace=wrap;rounded=0;fontSize=8;fontColor=#FFFFFF;" vertex="1" parent="1">
          <mxGeometry x="37" y="642.0000366210937" width="70" height="30" as="geometry" />
        </mxCell>
        <mxCell id="Z8T2b1Rlye_iMj2axkBO-92" value="" style="endArrow=none;html=1;rounded=0;fontSize=8;fontColor=#FFFFFF;entryX=0.5;entryY=1;entryDx=0;entryDy=0;strokeColor=#FFFFFF;" edge="1" parent="1" target="Z8T2b1Rlye_iMj2axkBO-54">
          <mxGeometry width="50" height="50" relative="1" as="geometry">
            <mxPoint x="77" y="562.0000366210937" as="sourcePoint" />
            <mxPoint x="127" y="502.0000366210937" as="targetPoint" />
          </mxGeometry>
        </mxCell>
        <mxCell id="Z8T2b1Rlye_iMj2axkBO-93" value="&lt;div style=&quot;font-size: 12px&quot;&gt;&lt;font style=&quot;font-size: 12px&quot;&gt;&lt;b&gt;SSH (p 22)&lt;/b&gt;&lt;/font&gt;&lt;/div&gt;&lt;div style=&quot;font-size: 12px&quot;&gt;&lt;font style=&quot;font-size: 12px&quot;&gt;&lt;b&gt;HTTP (p 80)&lt;/b&gt;&lt;/font&gt;&lt;br&gt;&lt;/div&gt;" style="text;html=1;strokeColor=none;fillColor=none;align=center;verticalAlign=middle;whiteSpace=wrap;rounded=0;fontSize=8;fontColor=#FFFFFF;" vertex="1" parent="1">
          <mxGeometry x="7" y="427.0000366210937" width="70" height="30" as="geometry" />
        </mxCell>
        <mxCell id="Z8T2b1Rlye_iMj2axkBO-94" value="" style="endArrow=none;html=1;rounded=0;fontSize=11;fontColor=#FFFFFF;strokeColor=#FFFFFF;" edge="1" parent="1" target="Z8T2b1Rlye_iMj2axkBO-58">
          <mxGeometry width="50" height="50" relative="1" as="geometry">
            <mxPoint x="107" y="300.0000366210937" as="sourcePoint" />
            <mxPoint x="157" y="252.00003662109373" as="targetPoint" />
          </mxGeometry>
        </mxCell>
        <mxCell id="Z8T2b1Rlye_iMj2axkBO-95" value="" style="endArrow=none;html=1;rounded=0;fontSize=11;fontColor=#FFFFFF;strokeColor=#FFFFFF;" edge="1" parent="1">
          <mxGeometry width="50" height="50" relative="1" as="geometry">
            <mxPoint x="317" y="542.0000366210937" as="sourcePoint" />
            <mxPoint x="697" y="542.0000366210937" as="targetPoint" />
          </mxGeometry>
        </mxCell>
        <mxCell id="Z8T2b1Rlye_iMj2axkBO-96" value="" style="endArrow=none;html=1;rounded=0;fontSize=11;fontColor=#FFFFFF;strokeColor=#FFFFFF;" edge="1" parent="1">
          <mxGeometry width="50" height="50" relative="1" as="geometry">
            <mxPoint x="697" y="542.0000366210937" as="sourcePoint" />
            <mxPoint x="697" y="522.0000366210937" as="targetPoint" />
          </mxGeometry>
        </mxCell>
        <mxCell id="Z8T2b1Rlye_iMj2axkBO-97" value="&lt;font style=&quot;font-size: 18px&quot;&gt;&lt;b&gt;Jill Burnitt&lt;/b&gt;&lt;/font&gt;" style="text;html=1;strokeColor=#FFFFFF;fillColor=none;align=center;verticalAlign=middle;whiteSpace=wrap;rounded=0;fontSize=11;fontColor=#FFFFFF;" vertex="1" parent="1">
          <mxGeometry x="257" y="744.0000366210937" width="480" height="30" as="geometry" />
        </mxCell>
      </root>
    </mxGraphModel>
  </diagram>
</mxfile>
